<svg width="24" height="24" viewBox="0 0 24 24" fill="none" xmlns="http://www.w3.org/2000/svg">
<path d="M17 17V7H15V17H17Z" fill="#1E1E1E"/>
<path fill-rule="evenodd" clip-rule="evenodd" d="M14.033 17L11.4405 7H8.55952L5.96694 17H8.03306L8.55158 15H11.4483L11.9668 17H14.033ZM10.9298 13H9.07009L9.99998 9.41328L10.9298 13Z" fill="#1E1E1E"/>
<path fill-rule="evenodd" clip-rule="evenodd" d="M8.7587 3H15.2413C16.0463 2.99999 16.7106 2.99998 17.2518 3.0442C17.8139 3.09012 18.3306 3.18868 18.816 3.43598C19.5686 3.81947 20.1805 4.43139 20.564 5.18404C20.8113 5.66938 20.9099 6.18608 20.9558 6.74818C21 7.28937 21 7.95372 21 8.75868V15.2413C21 16.0463 21 16.7106 20.9558 17.2518C20.9099 17.8139 20.8113 18.3306 20.564 18.816C20.1805 19.5686 19.5686 20.1805 18.816 20.564C18.3306 20.8113 17.8139 20.9099 17.2518 20.9558C16.7106 21 16.0463 21 15.2413 21H8.75868C7.95372 21 7.28937 21 6.74818 20.9558C6.18608 20.9099 5.66938 20.8113 5.18404 20.564C4.43139 20.1805 3.81947 19.5686 3.43598 18.816C3.18868 18.3306 3.09012 17.8139 3.0442 17.2518C2.99998 16.7106 2.99999 16.0463 3 15.2413V8.75869C2.99999 7.95373 2.99998 7.28936 3.0442 6.74818C3.09012 6.18608 3.18868 5.66938 3.43598 5.18404C3.81947 4.43139 4.43139 3.81947 5.18404 3.43598C5.66938 3.18868 6.18608 3.09012 6.74818 3.0442C7.28936 2.99998 7.95375 2.99999 8.7587 3ZM6.91104 5.03755C6.47262 5.07337 6.24842 5.1383 6.09202 5.21799C5.7157 5.40974 5.40974 5.7157 5.21799 6.09202C5.1383 6.24842 5.07337 6.47262 5.03755 6.91104C5.00078 7.36113 5 7.94342 5 8.8V15.2C5 16.0012 5.00068 16.5625 5.03086 17H5L5.03622 17.0724C5.03666 17.078 5.03711 17.0835 5.03755 17.089C5.07337 17.5274 5.1383 17.7516 5.21799 17.908C5.40974 18.2843 5.7157 18.5903 6.09202 18.782C6.24842 18.8617 6.47262 18.9266 6.91104 18.9624C7.20364 18.9864 7.55212 18.995 7.99552 18.9982L8 19H15.2C16.0566 19 16.6389 18.9992 17.089 18.9624C17.5274 18.9266 17.7516 18.8617 17.908 18.782C18.2843 18.5903 18.5903 18.2843 18.782 17.908C18.8617 17.7516 18.9266 17.5274 18.9624 17.089C18.9992 16.6389 19 16.0566 19 15.2V8.8C19 7.94342 18.9992 7.36113 18.9624 6.91104C18.9266 6.47262 18.8617 6.24842 18.782 6.09202C18.5903 5.7157 18.2843 5.40974 17.908 5.21799C17.7516 5.1383 17.5274 5.07337 17.089 5.03755C16.6389 5.00078 16.0566 5 15.2 5H8.8C7.94342 5 7.36113 5.00078 6.91104 5.03755Z" fill="#1E1E1E"/>
</svg>
