<svg width="36" height="36" viewBox="0 0 36 36" fill="none" xmlns="http://www.w3.org/2000/svg">
<rect width="36" height="36" rx="18" fill="white"/>
<path d="M15 18C15 18.7956 15.3161 19.5587 15.8787 20.1213C16.4413 20.6839 17.2044 21 18 21C18.7956 21 19.5587 20.6839 20.1213 20.1213C20.6839 19.5587 21 18.7957 21 18" stroke="#1E90FF" stroke-linecap="round"/>
<path d="M10.5 14.7111C10.5 14.11 10.5 13.8094 10.5858 13.526C10.6716 13.2426 10.8384 12.9925 11.1718 12.4923L11.3125 12.2812C11.8938 11.4093 12.1845 10.9733 12.6267 10.7367C13.0688 10.5 13.5928 10.5 14.6407 10.5H21.3593C22.4072 10.5 22.9312 10.5 23.3733 10.7367C23.8155 10.9733 24.1062 11.4093 24.6875 12.2812L24.8282 12.4923C25.1616 12.9925 25.3284 13.2426 25.4142 13.526C25.5 13.8094 25.5 14.11 25.5 14.7111V21.5C25.5 23.3856 25.5 24.3284 24.9142 24.9142C24.3284 25.5 23.3856 25.5 21.5 25.5H14.5C12.6144 25.5 11.6716 25.5 11.0858 24.9142C10.5 24.3284 10.5 23.3856 10.5 21.5V14.7111Z" stroke="#1E90FF"/>
<path d="M10.5 15.5H25.5" stroke="#1E90FF" stroke-linecap="round"/>
</svg>
