<svg width="36" height="36" viewBox="0 0 36 36" fill="none" xmlns="http://www.w3.org/2000/svg">
<rect width="36" height="36" rx="18" fill="white"/>
<path d="M10.7812 13.875C12.1102 13.875 13.1875 12.7977 13.1875 11.4688C13.1875 10.1398 12.1102 9.0625 10.7812 9.0625C9.45231 9.0625 8.375 10.1398 8.375 11.4688C8.375 12.7977 9.45231 13.875 10.7812 13.875Z" stroke="#0091DF" stroke-width="0.69" stroke-linecap="round" stroke-linejoin="round"/>
<path d="M16.625 21.4375C12.9868 19.848 13.1875 16.625 10.4375 16.625C9.71584 16.6492 9.03033 16.9467 8.51975 17.4573C8.00917 17.9678 7.71168 18.6533 7.6875 19.375V26.9375H13.1875V22.125" stroke="#0091DF" stroke-width="0.69" stroke-linecap="round" stroke-linejoin="round"/>
<path d="M19.375 21.4375C23.0132 19.848 22.8125 16.625 25.5625 16.625C26.2842 16.6492 26.9697 16.9467 27.4802 17.4573C27.9908 17.9678 28.2883 18.6533 28.3125 19.375V26.9375H22.8125V22.125" stroke="#0091DF" stroke-width="0.69" stroke-linecap="round" stroke-linejoin="round"/>
<path d="M25.2188 13.875C26.5477 13.875 27.625 12.7977 27.625 11.4688C27.625 10.1398 26.5477 9.0625 25.2188 9.0625C23.8898 9.0625 22.8125 10.1398 22.8125 11.4688C22.8125 12.7977 23.8898 13.875 25.2188 13.875Z" stroke="#0091DF" stroke-width="0.69" stroke-linecap="round" stroke-linejoin="round"/>
</svg>
