<svg width="20" height="15" viewBox="0 0 20 15" fill="none" xmlns="http://www.w3.org/2000/svg">
<path fill-rule="evenodd" clip-rule="evenodd" d="M10.5 2C8.43878 2 6.69885 3.38669 6.16708 5.27997C6.05237 5.6884 5.69241 5.98 5.26906 6.00746C3.44421 6.12582 2 7.64466 2 9.5C2 11.3009 3.361 12.7853 5.10995 12.9786C5.152 12.9832 5.1932 12.9905 5.2334 13.0001H14.7359C14.8665 12.9643 15.0044 12.955 15.1416 12.9746C15.2581 12.9913 15.3778 13 15.5 13C16.8807 13 18 11.8807 18 10.5C18 9.23509 17.0597 8.18816 15.8403 8.02285C15.3081 7.9507 14.9279 7.47102 14.9792 6.93639C14.9929 6.79305 15 6.64749 15 6.5C15 4.01472 12.9853 2 10.5 2ZM15.1602 14.9873C15.108 14.9957 15.0546 15.0001 15.0001 15.0001H5.00006C4.8727 15.0001 4.7509 14.9763 4.63886 14.9328C2.00994 14.519 0 12.2449 0 9.5C0 6.8185 1.91848 4.58577 4.45829 4.09864C5.41335 1.698 7.75729 0 10.5 0C14.0077 0 16.8665 2.77853 16.9955 6.25473C18.7458 6.87136 20 8.5386 20 10.5C20 12.9853 17.9853 15 15.5 15C15.3858 15 15.2725 14.9957 15.1602 14.9873Z" fill="#1E1E1E"/>
</svg>
