<svg width="24" height="24" viewBox="0 0 24 24" fill="none" xmlns="http://www.w3.org/2000/svg">
<path d="M12 16L11.2929 16.7071L12 17.4142L12.7071 16.7071L12 16ZM13 4C13 3.44772 12.5523 3 12 3C11.4477 3 11 3.44772 11 4L12 4L13 4ZM6 10L5.29289 10.7071L11.2929 16.7071L12 16L12.7071 15.2929L6.70711 9.29289L6 10ZM12 16L12.7071 16.7071L18.7071 10.7071L18 10L17.2929 9.29289L11.2929 15.2929L12 16ZM12 16L13 16L13 4L12 4L11 4L11 16L12 16Z" fill="#1A1A1A"/>
<path d="M5 21L19 21" stroke="#1A1A1A" stroke-width="2"/>
</svg>
