<svg width="20" height="20" viewBox="0 0 20 20" fill="none" xmlns="http://www.w3.org/2000/svg">
<path d="M3.75 11.5833C3.75 10.0196 3.75 9.23772 4.16329 8.6991C4.26969 8.56044 4.39381 8.43632 4.53248 8.32992C5.07109 7.91663 5.85295 7.91663 7.41667 7.91663H12.5833C14.147 7.91663 14.9289 7.91663 15.4675 8.32992C15.6062 8.43632 15.7303 8.56044 15.8367 8.6991C16.25 9.23772 16.25 10.0196 16.25 11.5833V11.5833C16.25 13.9289 16.25 15.1017 15.6301 15.9096C15.4705 16.1176 15.2843 16.3038 15.0763 16.4634C14.2684 17.0833 13.0956 17.0833 10.75 17.0833H9.25C6.90442 17.0833 5.73164 17.0833 4.92372 16.4634C4.71572 16.3038 4.52954 16.1176 4.36994 15.9096C3.75 15.1017 3.75 13.9289 3.75 11.5833V11.5833Z" stroke="#696969"/>
<path d="M13.75 7.91663V6.66663C13.75 4.59556 12.0711 2.91663 10 2.91663V2.91663C7.92893 2.91663 6.25 4.59556 6.25 6.66663V7.91663" stroke="#696969" stroke-linecap="round"/>
</svg>
