<svg width="32" height="32" viewBox="0 0 32 32" fill="none" xmlns="http://www.w3.org/2000/svg">
<path d="M19.1875 9.42383C19.6118 9.46926 19.9499 9.66401 20.2188 9.86914C20.503 10.086 20.8078 10.3937 21.1211 10.707L21.293 10.8789C21.6063 11.1922 21.914 11.497 22.1309 11.7812C22.3653 12.0886 22.5859 12.4864 22.5859 13C22.5859 13.5136 22.3653 13.9114 22.1309 14.2188C21.914 14.503 21.6063 14.8078 21.293 15.1211L14.0986 22.3154C13.9416 22.4725 13.7382 22.6886 13.4746 22.8379C13.2109 22.9872 12.9206 23.0506 12.7051 23.1045L10.0967 23.7559L10.0947 23.7568L10.0508 23.7676C9.90293 23.8045 9.68156 23.8628 9.4873 23.8818C9.28061 23.9021 8.82874 23.9088 8.45996 23.54C8.09118 23.1713 8.09794 22.7194 8.11816 22.5127C8.13719 22.3184 8.19546 22.0971 8.23242 21.9492L8.89551 19.2949C8.9494 19.0794 9.0128 18.7891 9.16211 18.5254C9.31138 18.2618 9.5275 18.0584 9.68457 17.9014L16.8789 10.707C17.1922 10.3937 17.497 10.086 17.7812 9.86914C18.0886 9.63466 18.4864 9.41406 19 9.41406L19.1875 9.42383Z" stroke="#1A1A1A" stroke-width="2"/>
<path d="M16.5 11.5L19.5 9.5L22.5 12.5L20.5 15.5L16.5 11.5Z" fill="#1A1A1A"/>
</svg>
