<svg width="24" height="24" viewBox="0 0 24 24" fill="none" xmlns="http://www.w3.org/2000/svg">
<path d="M15.0337 3.64422C15.4962 3.33583 15.7275 3.18164 15.9795 3.20659C16.2315 3.23155 16.4281 3.42811 16.8212 3.82123L20.1788 7.17877C20.5719 7.57189 20.7685 7.76845 20.7934 8.02046C20.8184 8.27246 20.6642 8.50375 20.3558 8.96633L18.2436 12.1345C17.6238 13.0643 17.3139 13.5292 17.1015 14.042C16.889 14.5549 16.7794 15.1028 16.5603 16.1985L16.2992 17.5038C16.2214 17.8931 16.1825 18.0877 16.0981 18.2088C15.9374 18.4395 15.6557 18.5533 15.3799 18.499C15.235 18.4704 15.0719 18.3574 14.7455 18.1315V18.1315C13.2114 17.0694 12.4444 16.5384 11.7241 15.9557C10.3718 14.8616 9.13844 13.6282 8.04434 12.2759C7.4616 11.5556 6.93057 10.7886 5.86851 9.25451V9.25451C5.64256 8.92814 5.52958 8.76496 5.50104 8.6201C5.44671 8.34435 5.56054 8.06256 5.79117 7.90192C5.91232 7.81754 6.10694 7.77861 6.49618 7.70076L7.80152 7.4397C8.89724 7.22055 9.44511 7.11098 9.95797 6.89854C10.4708 6.6861 10.9357 6.37619 11.8655 5.75635L15.0337 3.64422Z" stroke="#1A1A1A" stroke-width="2"/>
<path d="M5 19L9.5 14.5" stroke="#1A1A1A" stroke-width="2" stroke-linecap="round"/>
</svg>
