<svg width="15" height="18" viewBox="0 0 15 18" fill="none" xmlns="http://www.w3.org/2000/svg">
<path d="M7.5 1.5L6.79289 0.792893L7.5 0.0857862L8.20711 0.792893L7.5 1.5ZM8.5 16.5C8.5 17.0523 8.05229 17.5 7.5 17.5C6.94772 17.5 6.5 17.0523 6.5 16.5L7.5 16.5L8.5 16.5ZM1.5 7.5L0.792893 6.79289L6.79289 0.792893L7.5 1.5L8.20711 2.20711L2.20711 8.20711L1.5 7.5ZM7.5 1.5L8.20711 0.792893L14.2071 6.79289L13.5 7.5L12.7929 8.20711L6.79289 2.20711L7.5 1.5ZM7.5 1.5L8.5 1.5L8.5 16.5L7.5 16.5L6.5 16.5L6.5 1.5L7.5 1.5Z" fill="white"/>
</svg>
