<svg width="24" height="24" viewBox="0 0 24 24" fill="none" xmlns="http://www.w3.org/2000/svg">
<circle cx="12" cy="8" r="4" stroke="white" stroke-linecap="round"/>
<path d="M10.9062 15.5537C12.3881 15.4074 13.8946 15.5622 15.2725 16H14C13.482 16 13.0115 16.1985 12.6562 16.5215C12.1093 16.486 11.5556 16.4945 11.0049 16.5488C9.50806 16.6966 8.11491 17.173 7 17.9062C5.88515 18.6395 5.1102 19.5879 4.74316 20.6152C4.65026 20.8752 4.3645 21.0108 4.10449 20.918C3.84458 20.8251 3.70912 20.5392 3.80176 20.2793C4.25373 19.0142 5.18596 17.9029 6.4502 17.0713C7.71433 16.2398 9.2659 15.7157 10.9062 15.5537Z" fill="white"/>
<path d="M18 14L18 22" stroke="white" stroke-linecap="round"/>
<path d="M22 18L14 18" stroke="white" stroke-linecap="round"/>
</svg>
