<svg width="67" height="66" viewBox="0 0 67 66" fill="none" xmlns="http://www.w3.org/2000/svg">
<g filter="url(#filter0_d_6914_5537)">
<rect width="63" height="62" rx="12.9261" fill="white"/>
<path d="M26.3652 10.8928C23.3314 10.4053 20.2206 10.8786 17.4688 12.2457C14.7172 13.6128 12.4616 15.8054 11.0174 18.5173C9.57313 21.2294 9.01203 24.3258 9.4137 27.3721C9.81542 30.4184 11.1598 33.2627 13.2576 35.5078C15.3555 37.7528 18.1024 39.2862 21.1145 39.8933C24.1266 40.5003 27.253 40.1512 30.0567 38.8941L29.9609 38.6823C29.9682 38.6527 29.9716 38.6214 29.9702 38.5894L29.655 31.3778C29.6468 31.1904 29.4771 31.0512 29.2988 31.1092C28.3755 31.41 27.3797 32.3001 25.6181 32.8647C24.6105 33.0482 23.5623 33.0088 22.5429 32.8033C21.009 32.4941 19.6096 31.714 18.5412 30.5706C17.4728 29.4271 16.7886 27.9777 16.584 26.4261C16.3795 24.8747 16.6648 23.2977 17.4003 21.9164C18.1358 20.5353 19.2849 19.4186 20.6862 18.7223C22.0878 18.026 23.6723 17.7857 25.2175 18.034C26.65 18.2642 27.9829 18.9034 29.0564 19.8723C29.4447 20.2963 29.8151 20.7911 30.1614 21.3629L30.9239 22.4809C31.1553 23.0193 31.3232 23.5862 31.4239 24.1703L31.4851 24.1597L32.2947 51.5301C32.2997 51.7004 32.4392 51.8366 32.6096 51.8367L39.5075 51.8368C39.6906 51.8368 39.8355 51.6856 39.8232 51.5029C39.2011 42.3466 40.2266 26.8395 38.1815 21.3411C37.4841 18.9356 36.1834 16.7376 34.3896 14.964C32.2047 12.8037 29.3988 11.3803 26.3652 10.8928Z" fill="#B3CCFB"/>
<path d="M51.4926 22.9567C51.3395 22.1141 46.8696 22.2639 45.1706 23.1415C45.0803 23.1882 45.0247 23.28 45.0165 23.3814L44.8719 25.1643V51.0165C44.8719 51.1906 45.0131 51.3318 45.1872 51.3318H51.343C51.5139 51.3318 51.6536 51.2011 51.6578 51.0301C51.8824 41.6968 51.6823 24 51.4926 22.9567Z" fill="#B3CCFB"/>
<circle cx="48.2611" cy="15.7057" r="4.17734" fill="#B3CCFB"/>
<path d="M21.9058 10.896C24.9396 10.4085 28.0501 10.8809 30.8019 12.248C33.5537 13.6151 35.8094 15.8084 37.2536 18.5205C38.6977 21.2326 39.2587 24.3281 38.857 27.3744C38.4554 30.4207 37.1112 33.2658 35.0133 35.5109C32.9155 37.7559 30.1684 39.2894 27.1564 39.8964C24.1443 40.5035 21.0178 40.1535 18.2141 38.8964L18.3098 38.6846C18.3025 38.6549 18.2991 38.6236 18.3005 38.5916L18.6158 31.3801C18.6241 31.1927 18.7938 31.0542 18.9722 31.1124C19.8958 31.4135 20.8919 32.304 22.6549 32.8685C23.6617 33.0514 24.7087 33.012 25.7271 32.8067C27.2612 32.4975 28.661 31.7163 29.7295 30.5728C30.7978 29.4295 31.4823 27.9807 31.6869 26.4293C31.8915 24.8778 31.6052 23.3011 30.8697 21.9198C30.1341 20.5385 28.9851 19.421 27.5835 18.7247C26.1821 18.0286 24.5982 17.7879 23.0533 18.0362C21.6215 18.2663 20.2892 18.9052 19.2161 19.8732C18.827 20.2976 18.4561 20.7925 18.1093 21.3652L17.3468 22.4831C17.1154 23.0215 16.9476 23.5885 16.8469 24.1725L16.7856 24.1619L15.9753 51.5335C15.97 51.7037 15.8305 51.8392 15.6602 51.8392L8.76229 51.8392C8.57918 51.8392 8.43429 51.688 8.44653 51.5053C9.06904 42.3443 8.04202 26.8258 10.0913 21.3348C10.7893 18.9329 12.0898 16.7386 13.8813 14.9672C16.0663 12.8068 18.872 11.3835 21.9058 10.896Z" fill="#1E90FF"/>
</g>
<defs>
<filter id="filter0_d_6914_5537" x="0" y="0" width="66.1527" height="65.1527" filterUnits="userSpaceOnUse" color-interpolation-filters="sRGB">
<feFlood flood-opacity="0" result="BackgroundImageFix"/>
<feColorMatrix in="SourceAlpha" type="matrix" values="0 0 0 0 0 0 0 0 0 0 0 0 0 0 0 0 0 0 127 0" result="hardAlpha"/>
<feOffset dx="3.15271" dy="3.15271"/>
<feComposite in2="hardAlpha" operator="out"/>
<feColorMatrix type="matrix" values="0 0 0 0 0.0509804 0 0 0 0 0.368627 0 0 0 0 0.956863 0 0 0 1 0"/>
<feBlend mode="normal" in2="BackgroundImageFix" result="effect1_dropShadow_6914_5537"/>
<feBlend mode="normal" in="SourceGraphic" in2="effect1_dropShadow_6914_5537" result="shape"/>
</filter>
</defs>
</svg>
